<svg width="1290" height="802" viewBox="0 0 1290 802" fill="none" xmlns="http://www.w3.org/2000/svg">
<path d="M113.281 367.021C115.25 357.25 124.48 346.167 132.788 338.153C141.945 329.318 149.892 306.956 138.464 297.507C133.773 293.627 117.074 290.051 109.771 288.929C93.7064 286.463 71.5557 286.367 54.8626 287.585C47.7437 288.105 52.2693 308.3 54.2433 311.973C57.7313 318.462 65.8786 322.485 69.5187 328.935C75.1816 338.97 70.2416 356.079 63.1195 365.228C59.2068 370.255 53.3882 376.514 53.8304 381.999C54.6097 391.665 69.4727 404.374 80.2527 411.059C92.2397 418.493 98.0097 410.164 105.746 404.466C109.464 401.728 117.678 399.125 120.299 396.465C123.369 393.35 126.543 390.157 130.311 387.12C136.762 381.918 159.229 372.171 159.726 364.46C160.126 358.254 159.726 351.98 159.726 345.77C159.726 334.45 167.279 327.737 176.446 318.374C188.82 305.734 184.382 288.36 191.309 274.399C193.686 269.608 203.772 263.161 208.958 259.229C215.605 254.191 220.819 255.261 231.149 255.261C240.142 255.261 249.199 255.42 258.19 255.261C263.588 255.165 266.601 253.089 271.195 251.868C274.369 251.024 282.317 251.535 284.2 250.076C286.714 248.126 301.143 249.5 305.048 249.5C324.295 249.5 342.243 249.397 361.196 247.259C370.677 246.19 401.114 242.402 407.848 247.772C413.94 252.629 412.758 259.625 410.944 265.374C407.614 275.93 406.018 302.118 433.857 298.979C443.234 297.922 456.176 288.038 459.557 282.913C466.185 272.864 466.009 261.58 475.967 252.316C479.37 249.151 482.477 247.243 487.63 245.467C490.274 244.556 496.161 243.319 497.848 242.011C499.848 240.461 503.969 240.769 506.725 238.49C512.489 233.724 517.339 228.203 522 223" stroke="#C6CAC2" stroke-linecap="round"/>
<path d="M479.978 784.127C479.978 778.641 480.687 773.739 486.054 769.179C489.888 765.922 495.619 764.114 499.57 760.889C504.605 756.778 507.348 752.258 508.265 747.116C508.916 743.47 510.817 739.988 512.037 736.411C513.723 731.467 513.775 726.339 515.337 721.365C518.428 711.524 521.059 701.08 520.314 691.044C519.566 680.961 518.498 671.052 518.638 660.953C518.91 641.289 530.24 621.984 540.796 603.772C545.918 594.935 548.811 585.304 548.811 575.899C548.811 568.129 548.53 560.425 544.621 552.955C543.464 550.746 541.268 549.319 541.268 546.917C541.268 541.709 540.196 536.037 541.792 530.924C542.628 528.246 545.121 518 550.226 518C567.906 518 577.875 530.201 578.042 539.802C578.244 551.363 578.042 562.934 578.042 574.496C578.042 581.284 578.118 587.576 581.499 594.111C585.158 601.181 589.086 608.106 594.019 614.868C600.155 623.278 608.966 631.16 612.721 640.195C619.152 655.669 622.826 671.33 625.188 687.226C626.223 694.185 626.85 701.096 628.489 708.016C629.724 713.235 632.204 718.302 633.465 723.486C635.299 731.029 632.444 737.326 624.455 743.003C609.855 753.379 590.53 760.035 571.442 766.764C541.408 777.351 508.989 776.26 475.577 776.522C456.988 776.668 438.526 777.953 419.945 778.252C396.369 778.631 372.087 778.931 348.911 781.907C310.984 786.778 274.161 795.173 236.178 799.989C229.429 800.844 223.736 802.598 221.301 797.639C219.331 793.626 218.084 789.206 217.372 785.041C216.756 781.433 216.501 775.812 219.939 772.638C223.81 769.065 231.861 767.191 237.855 765.621C253.222 761.596 269.375 758.526 285.42 755.765C326.848 748.635 369.452 743.228 412.087 739.74C422.193 738.913 432.342 738.098 442.47 737.39C453.729 736.602 465.135 736.848 476.311 735.627C487.12 734.447 495.456 733.069 504.703 729.361C527.666 720.154 544.101 706.334 555.726 691.077C563.51 680.862 569.047 670.087 573.327 659.125C577.757 647.78 580.339 636.059 585.743 624.888C590.468 615.12 597.318 605.766 603.973 596.461C609.061 589.345 615.996 583.486 622.36 576.878C625.277 573.849 631.371 570.739 632.732 567.348" stroke="#C6CAC2" stroke-linecap="round"/>
<path d="M634 286C625.791 288.562 617.663 290.933 610.836 294.854C608.14 296.402 601.187 298.711 600.764 301.088C600.599 302.016 600.053 302.379 598.918 302.974C595.565 304.732 595.152 307.157 593.798 309.628C589.469 317.526 587.651 324.736 589.014 333.151C591.074 345.868 606.29 356.869 611.675 369.195C615.899 378.863 618.031 389.078 613.27 398.9C609.302 407.082 599.08 409.834 588.594 414.198C576.675 419.158 560.141 418.232 547.301 421.794C543.746 422.78 541.091 431.745 540.671 433.844C539.789 438.246 540.335 442.822 540.335 447.256C540.335 450.41 539.427 452.308 536.306 454.957C530.823 459.612 526.053 465.668 520.024 469.888C512.728 474.994 510.207 476.489 498.706 476.489C470.756 476.489 442.93 480.1 414.777 477.903C384.55 475.545 351.008 476.688 321.196 479.79C280.902 483.982 237.389 492.865 214.018 515.153C205.33 523.438 199.019 534.131 193.791 543.495C187.492 554.779 189.958 567.438 189.846 579.173C189.629 602.117 171.321 619.477 148.973 636.749C131.736 650.07 108.172 658.996 84.0117 666.14C74.8683 668.843 63.6727 672.152 59.0847 678.189C51.352 688.365 44.9743 701.138 44.8167 712.452C44.6995 720.868 42.7927 730.612 47.4185 738.647C52.1034 746.784 62.322 752.464 74.3598 756.355C80.7296 758.414 88.2415 761.364 95.3421 762.17C100.067 762.706 99.171 754.276 99.2029 752.583C99.6385 729.469 103.693 703.113 87.1171 681.647C74.6246 665.469 57.261 651.866 41.0399 637.168C20.3606 618.43 2.12513 598.776 1.08959 575.505C-0.308414 544.09 14.5716 519.051 51.5311 497.445C64.7936 489.692 80.0222 481.471 96.9368 477.013C105.284 474.813 112.61 472.707 120.353 469.888C125.743 467.925 130.555 464.132 133.866 460.929C134.542 460.275 144.211 450.642 144.441 450.713C147.294 451.604 143.25 468.251 143.014 469.469C140.57 482.075 133.839 494.449 126.396 506.194C117.599 520.074 109.772 534.242 99.5386 547.739C93.0342 556.318 89.1402 565.6 82.417 574.143C75.8172 582.53 70.0639 588.978 68.6526 598.347C66.8856 610.079 62.9454 621.261 62.9454 633.134C62.9454 655.471 71.0154 679.14 97.3564 695.583C108.77 702.707 124.686 705.472 139.069 709.414C145.902 711.286 152.405 714.116 155.435 718.529C160.963 726.581 159.632 735.381 159.632 743.938C159.632 751.188 158.272 757.348 153.925 764.108C151.176 768.383 148.069 772.596 147.63 777.258C146.991 784.045 145.571 799 161.311 799C171.538 799 179.563 793.342 185.986 788.941C195.901 782.147 209.517 773.442 212.507 764.108" stroke="#C6CAC2" stroke-linecap="round"/>
<path d="M768.281 145.021C770.25 135.25 779.48 124.167 787.788 116.153C796.945 107.318 804.892 84.956 793.464 75.5067C788.773 71.6273 772.074 68.0505 764.771 66.9295C748.706 64.4634 726.556 64.3673 709.863 65.5853C702.744 66.1047 707.269 86.3001 709.243 89.9728C712.731 96.4624 720.879 100.485 724.519 106.935C730.182 116.97 725.242 134.079 718.12 143.228C714.207 148.255 708.388 154.514 708.83 159.999C709.61 169.665 724.473 182.374 735.253 189.059C747.24 196.493 753.01 188.164 760.746 182.466C764.464 179.728 772.678 177.125 775.299 174.465C778.369 171.35 781.543 168.157 785.311 165.12C791.762 159.918 814.229 150.171 814.726 142.46C815.126 136.254 814.726 129.98 814.726 123.77C814.726 112.45 822.279 105.737 831.446 96.3737C843.82 83.7344 839.382 66.3598 846.309 52.3994C848.686 47.608 858.772 41.1605 863.958 37.2292C870.605 32.191 875.819 33.2606 886.149 33.2606C895.142 33.2606 904.199 33.42 913.19 33.2606C918.588 33.165 921.601 31.0893 926.195 29.8681C929.369 29.0245 937.317 29.535 939.2 28.0759C941.714 26.1264 956.143 27.4998 960.048 27.4998C979.295 27.4998 997.243 27.3966 1016.2 25.2595C1025.68 24.1903 1056.11 20.4024 1062.85 25.7716C1068.94 30.6292 1067.76 37.6246 1065.94 43.3741C1062.61 53.9296 1061.02 80.118 1088.86 76.9789C1098.23 75.9216 1111.18 66.0385 1114.56 60.9126C1121.18 50.8644 1121.01 39.5805 1130.97 30.3162C1134.37 27.1511 1137.48 25.2429 1142.63 23.4672C1145.27 22.5564 1151.16 21.3186 1152.85 20.0107C1154.85 18.4608 1158.97 18.7685 1161.72 16.4902C1167.49 11.7239 1172.34 6.20266 1177 1" stroke="#C6CAC2" stroke-linecap="round"/>
<path d="M1134.98 562.127C1134.98 556.641 1135.69 551.739 1141.05 547.179C1144.89 543.922 1150.62 542.114 1154.57 538.889C1159.6 534.778 1162.35 530.258 1163.27 525.116C1163.92 521.47 1165.82 517.988 1167.04 514.411C1168.72 509.467 1168.78 504.339 1170.34 499.365C1173.43 489.524 1176.06 479.08 1175.31 469.044C1174.57 458.961 1173.5 449.052 1173.64 438.953C1173.91 419.289 1185.24 399.984 1195.8 381.772C1200.92 372.935 1203.81 363.304 1203.81 353.899C1203.81 346.129 1203.53 338.425 1199.62 330.955C1198.46 328.746 1196.27 327.319 1196.27 324.917C1196.27 319.709 1195.2 314.037 1196.79 308.924C1197.63 306.246 1200.12 296 1205.23 296C1222.91 296 1232.87 308.201 1233.04 317.802C1233.24 329.363 1233.04 340.934 1233.04 352.496C1233.04 359.284 1233.12 365.576 1236.5 372.111C1240.16 379.181 1244.09 386.106 1249.02 392.868C1255.15 401.278 1263.97 409.16 1267.72 418.195C1274.15 433.669 1277.83 449.33 1280.19 465.226C1281.22 472.185 1281.85 479.096 1283.49 486.016C1284.72 491.235 1287.2 496.302 1288.47 501.486C1290.3 509.029 1287.44 515.326 1279.46 521.003C1264.86 531.379 1245.53 538.035 1226.44 544.764C1196.41 555.351 1163.99 554.26 1130.58 554.522C1111.99 554.668 1093.53 555.953 1074.94 556.252C1051.37 556.631 1027.09 556.931 1003.91 559.907C965.984 564.778 929.161 573.173 891.178 577.989C884.429 578.844 878.736 580.598 876.301 575.639C874.331 571.626 873.084 567.206 872.372 563.041C871.756 559.433 871.501 553.812 874.939 550.638C878.81 547.065 886.861 545.191 892.855 543.621C908.222 539.596 924.375 536.526 940.42 533.765C981.848 526.635 1024.45 521.228 1067.09 517.74C1077.19 516.913 1087.34 516.098 1097.47 515.39C1108.73 514.602 1120.14 514.848 1131.31 513.627C1142.12 512.447 1150.46 511.069 1159.7 507.361C1182.67 498.154 1199.1 484.334 1210.73 469.077C1218.51 458.862 1224.05 448.087 1228.33 437.125C1232.76 425.78 1235.34 414.059 1240.74 402.888C1245.47 393.12 1252.32 383.766 1258.97 374.461C1264.06 367.345 1271 361.486 1277.36 354.878C1280.28 351.849 1286.37 348.739 1287.73 345.348" stroke="#C6CAC2" stroke-linecap="round"/>
<path d="M1289 64C1280.79 66.5621 1272.66 68.9331 1265.84 72.8538C1263.14 74.4017 1256.19 76.7114 1255.76 79.0882C1255.6 80.0162 1255.05 80.3789 1253.92 80.9742C1250.57 82.732 1250.15 85.1569 1248.8 87.6277C1244.47 95.5259 1242.65 102.736 1244.01 111.151C1246.07 123.868 1261.29 134.869 1266.67 147.195C1270.9 156.863 1273.03 167.078 1268.27 176.9C1264.3 185.082 1254.08 187.834 1243.59 192.198C1231.68 197.158 1215.14 196.232 1202.3 199.794C1198.75 200.78 1196.09 209.745 1195.67 211.844C1194.79 216.246 1195.34 220.822 1195.34 225.255C1195.34 228.41 1194.43 230.308 1191.31 232.957C1185.82 237.612 1181.05 243.668 1175.02 247.888C1167.73 252.994 1165.21 254.489 1153.71 254.489C1125.76 254.489 1097.93 258.1 1069.78 255.903C1039.55 253.545 1006.01 254.688 976.196 257.79C935.902 261.982 892.389 270.865 869.018 293.153C860.33 301.438 854.019 312.131 848.791 321.495C842.492 332.779 844.958 345.438 844.846 357.173C844.629 380.117 826.321 397.477 803.973 414.749C786.736 428.07 763.172 436.996 739.012 444.14C729.868 446.843 718.673 450.152 714.085 456.189C706.352 466.365 699.974 479.138 699.817 490.452C699.699 498.868 697.793 508.612 702.419 516.647C707.103 524.784 717.322 530.463 729.36 534.355C735.73 536.414 743.241 539.364 750.342 540.17C755.067 540.706 754.171 532.276 754.203 530.583C754.639 507.469 758.693 481.113 742.117 459.647C729.625 443.469 712.261 429.866 696.04 415.168C675.361 396.43 657.125 376.776 656.09 353.505C654.692 322.09 669.572 297.051 706.531 275.445C719.794 267.692 735.022 259.471 751.937 255.013C760.284 252.813 767.61 250.707 775.353 247.888C780.743 245.925 785.555 242.132 788.866 238.929C789.542 238.275 799.211 228.642 799.441 228.713C802.294 229.604 798.25 246.251 798.014 247.469C795.57 260.075 788.839 272.449 781.396 284.194C772.599 298.074 764.772 312.242 754.539 325.739C748.034 334.318 744.14 343.6 737.417 352.143C730.817 360.53 725.064 366.978 723.653 376.347C721.886 388.079 717.945 399.261 717.945 411.134C717.945 433.471 726.015 457.14 752.356 473.583C763.77 480.707 779.686 483.472 794.069 487.414C800.902 489.286 807.405 492.116 810.435 496.529C815.963 504.581 814.632 513.381 814.632 521.938C814.632 529.188 813.272 535.348 808.925 542.108C806.176 546.383 803.069 550.596 802.63 555.258C801.991 562.045 800.571 577 816.311 577C826.538 577 834.563 571.342 840.986 566.941C850.901 560.147 864.517 551.441 867.507 542.108" stroke="#C6CAC2" stroke-linecap="round"/>
</svg>
