<svg width="9" height="11" viewBox="0 0 9 11" fill="none" xmlns="http://www.w3.org/2000/svg">
<g clip-path="url(#clip0_84_49)">
<path d="M0.705194 6.18531L5.49905 10.1222C5.57904 10.1879 5.68531 10.2246 5.79581 10.2246C5.90632 10.2246 6.01259 10.1879 6.09258 10.1222L6.09774 10.1178C6.13665 10.0859 6.16764 10.0476 6.18881 10.0051C6.20998 9.96255 6.2209 9.91677 6.2209 9.87051C6.2209 9.82425 6.20998 9.77848 6.18881 9.73597C6.16764 9.69346 6.13665 9.65511 6.09774 9.62325L1.58345 5.91618L6.09774 2.21058C6.13665 2.17872 6.16764 2.14037 6.18881 2.09786C6.20998 2.05536 6.2209 2.00958 6.2209 1.96332C6.2209 1.91706 6.20998 1.87129 6.18881 1.82878C6.16764 1.78627 6.13665 1.74792 6.09774 1.71606L6.09258 1.71161C6.01259 1.64589 5.90632 1.60922 5.79581 1.60922C5.68531 1.60922 5.57904 1.64589 5.49905 1.71161L0.705194 5.64852C0.663034 5.68315 0.62947 5.72479 0.606536 5.77092C0.583603 5.81706 0.571777 5.86673 0.571777 5.91692C0.571777 5.96711 0.583603 6.01678 0.606536 6.06291C0.62947 6.10905 0.663034 6.15069 0.705194 6.18531Z" fill="#191818"/>
</g>
<defs>
<clipPath id="clip0_84_49">
<rect width="11" height="9" fill="white" transform="matrix(0 -1 1 0 0 11)"/>
</clipPath>
</defs>
</svg>
