<svg width="9" height="11" viewBox="0 0 9 11" fill="none" xmlns="http://www.w3.org/2000/svg">
<g clip-path="url(#clip0_83_33)">
<path d="M8.29481 4.81469L3.50095 0.877777C3.42096 0.812054 3.31469 0.775391 3.20419 0.775391C3.09368 0.775391 2.98741 0.812054 2.90742 0.877777L2.90226 0.882225C2.86335 0.914086 2.83236 0.952437 2.81119 0.994944C2.79002 1.03745 2.7791 1.08323 2.7791 1.12949C2.7791 1.17575 2.79002 1.22152 2.81119 1.26403C2.83236 1.30654 2.86335 1.34489 2.90226 1.37675L7.41655 5.08382L2.90226 8.78942C2.86335 8.82128 2.83236 8.85963 2.81119 8.90214C2.79002 8.94464 2.7791 8.99042 2.7791 9.03668C2.7791 9.08294 2.79002 9.12871 2.81119 9.17122C2.83236 9.21373 2.86335 9.25208 2.90226 9.28394L2.90742 9.28839C2.98741 9.35411 3.09368 9.39078 3.20419 9.39078C3.31469 9.39078 3.42096 9.35411 3.50095 9.28839L8.29481 5.35148C8.33697 5.31685 8.37053 5.27521 8.39346 5.22908C8.4164 5.18294 8.42822 5.13327 8.42822 5.08308C8.42822 5.03289 8.4164 4.98322 8.39346 4.93709C8.37053 4.89095 8.33697 4.84931 8.29481 4.81469Z" fill="#191818"/>
</g>
<defs>
<clipPath id="clip0_83_33">
<rect width="11" height="9" fill="white" transform="matrix(0 1 -1 0 9 0)"/>
</clipPath>
</defs>
</svg>
