<svg width="35" height="35" viewBox="0 0 35 35" fill="none" xmlns="http://www.w3.org/2000/svg">
<path d="M31.1355 16.1875H17.7625V20.1688H27.2563C26.775 25.725 22.1521 28.1021 17.7771 28.1021C12.1917 28.1021 7.2917 23.6979 7.2917 17.5C7.2917 11.5209 11.9584 6.89794 17.7917 6.89794C22.2979 6.89794 24.9375 9.77085 24.9375 9.77085L27.7084 6.88335C27.7084 6.88335 24.15 2.91669 17.6459 2.91669C9.36253 2.91669 2.96045 9.91669 2.96045 17.5C2.96045 24.8646 8.98337 32.0834 17.8646 32.0834C25.6667 32.0834 31.3542 26.7313 31.3542 18.8271C31.3542 17.15 31.1355 16.1875 31.1355 16.1875Z" fill="#191818"/>
</svg>
