<svg width="67" height="77" viewBox="0 0 67 77" fill="none" xmlns="http://www.w3.org/2000/svg">
<g clip-path="url(#clip0_64_50)">
<path d="M21.3793 38.5001C21.3793 38.1159 21.4476 37.7344 21.5804 37.3781C21.7133 37.0217 21.909 36.6954 22.1595 36.421L45.4965 10.8663L45.683 10.6808C46.1354 10.2729 46.7067 10.0393 47.3099 10.0392C47.9996 10.0392 48.6481 10.3445 49.1244 10.8663L49.1322 10.8751L49.1576 10.9044L49.1566 10.9054C49.3873 11.1599 49.5689 11.4604 49.6918 11.7892C49.7851 12.039 49.8439 12.3021 49.8676 12.5695L49.8793 12.837C49.8793 13.1959 49.8162 13.5529 49.6918 13.8859C49.5675 14.2184 49.3843 14.5231 49.1498 14.7794L27.4808 38.4962L49.1498 62.2208C49.3843 62.4771 49.5675 62.7818 49.6918 63.1144C49.7851 63.3642 49.8439 63.6273 49.8676 63.8947L49.8793 64.1622C49.8793 64.5211 49.8162 64.8781 49.6918 65.2111C49.5688 65.5401 49.3876 65.8412 49.1566 66.0958H49.1576L49.1322 66.1251L49.1244 66.1339C48.6481 66.6556 47.9996 66.9611 47.3099 66.9611L47.0541 66.9474C46.4615 66.8818 45.9132 66.5904 45.4965 66.1339L22.1595 40.5792L21.9818 40.3644C21.8147 40.1402 21.6801 39.8895 21.5804 39.6222C21.4476 39.2658 21.3793 38.8843 21.3793 38.5001Z" fill="#191818" stroke="#DADED6"/>
</g>
<defs>
<clipPath id="clip0_64_50">
<rect width="77" height="67" fill="white" transform="matrix(0 -1 1 0 0 77)"/>
</clipPath>
</defs>
</svg>
