<svg width="165" height="40" viewBox="0 0 165 40" fill="none" xmlns="http://www.w3.org/2000/svg">
<path d="M9.472 23.82C7.936 23.82 6.57067 23.6067 5.376 23.18C4.18133 22.7533 3.04 22.0493 1.952 21.068C1.71733 20.8973 1.536 20.6947 1.408 20.46C1.30133 20.204 1.248 19.948 1.248 19.692C1.248 19.2867 1.39733 18.924 1.696 18.604C1.99467 18.284 2.368 18.124 2.816 18.124C3.15733 18.124 3.47733 18.2413 3.776 18.476C4.58667 19.2227 5.42933 19.788 6.304 20.172C7.2 20.556 8.24533 20.748 9.44 20.748C10.2933 20.748 11.072 20.6093 11.776 20.332C12.5013 20.0547 13.0773 19.6813 13.504 19.212C13.9307 18.7427 14.144 18.1987 14.144 17.58C14.144 16.812 13.92 16.1827 13.472 15.692C13.0453 15.18 12.416 14.764 11.584 14.444C10.7733 14.1027 9.792 13.8147 8.64 13.58C7.57333 13.388 6.61333 13.1213 5.76 12.78C4.928 12.4387 4.21333 12.012 3.616 11.5C3.01867 10.9667 2.56 10.3373 2.24 9.612C1.92 8.88667 1.76 8.044 1.76 7.084C1.76 5.78267 2.10133 4.66267 2.784 3.724C3.46667 2.78533 4.39467 2.06 5.568 1.548C6.74133 1.036 8.064 0.779999 9.536 0.779999C10.88 0.779999 12.1387 0.993332 13.312 1.42C14.4853 1.82533 15.4347 2.38 16.16 3.084C16.672 3.532 16.928 4.012 16.928 4.524C16.928 4.908 16.768 5.27067 16.448 5.612C16.1493 5.932 15.7973 6.092 15.392 6.092C15.0933 6.092 14.8373 6.00667 14.624 5.836C14.2827 5.47333 13.824 5.15333 13.248 4.876C12.672 4.57733 12.0533 4.332 11.392 4.14C10.752 3.948 10.1333 3.852 9.536 3.852C8.576 3.852 7.75467 3.99067 7.072 4.268C6.38933 4.524 5.86667 4.88667 5.504 5.356C5.14133 5.804 4.96 6.33733 4.96 6.956C4.96 7.68133 5.16267 8.27867 5.568 8.748C5.99467 9.21733 6.58133 9.60133 7.328 9.9C8.07467 10.1773 8.928 10.4333 9.888 10.668C11.0613 10.924 12.1067 11.212 13.024 11.532C13.9627 11.852 14.752 12.268 15.392 12.78C16.032 13.2707 16.5227 13.8893 16.864 14.636C17.2053 15.3827 17.376 16.3107 17.376 17.42C17.376 18.7 17.0133 19.82 16.288 20.78C15.5627 21.74 14.6027 22.4867 13.408 23.02C12.2347 23.5533 10.9227 23.82 9.472 23.82ZM40.1268 12.3C40.1268 13.9213 39.8601 15.436 39.3267 16.844C38.7934 18.2307 38.0361 19.4467 37.0548 20.492C36.0948 21.5373 34.9534 22.3587 33.6308 22.956C32.3081 23.532 30.8574 23.82 29.2788 23.82C27.7214 23.82 26.2814 23.532 24.9587 22.956C23.6361 22.3587 22.4841 21.5373 21.5027 20.492C20.5427 19.4467 19.7961 18.2307 19.2627 16.844C18.7507 15.436 18.4947 13.9213 18.4947 12.3C18.4947 10.6787 18.7507 9.17467 19.2627 7.788C19.7961 6.38 20.5427 5.15333 21.5027 4.108C22.4841 3.06267 23.6361 2.252 24.9587 1.676C26.2814 1.07867 27.7214 0.779999 29.2788 0.779999C30.8574 0.779999 32.3081 1.07867 33.6308 1.676C34.9534 2.252 36.0948 3.06267 37.0548 4.108C38.0361 5.15333 38.7934 6.38 39.3267 7.788C39.8601 9.17467 40.1268 10.6787 40.1268 12.3ZM36.6707 12.3C36.6707 10.7213 36.3507 9.30267 35.7108 8.044C35.0921 6.78533 34.2281 5.79333 33.1187 5.068C32.0094 4.34267 30.7294 3.98 29.2788 3.98C27.8494 3.98 26.5801 4.34267 25.4707 5.068C24.3614 5.79333 23.4974 6.78533 22.8787 8.044C22.2601 9.28133 21.9507 10.7 21.9507 12.3C21.9507 13.8787 22.2601 15.2973 22.8787 16.556C23.4974 17.8147 24.3614 18.8067 25.4707 19.532C26.5801 20.2573 27.8494 20.62 29.2788 20.62C30.7294 20.62 32.0094 20.2573 33.1187 19.532C34.2281 18.8067 35.0921 17.8147 35.7108 16.556C36.3507 15.2973 36.6707 13.8787 36.6707 12.3ZM44.1185 1.068C44.3745 1.068 44.6412 1.132 44.9185 1.26C45.1958 1.388 45.4092 1.56933 45.5585 1.804L53.6865 14.188L52.3105 14.124L60.5985 1.804C60.9398 1.31333 61.3772 1.068 61.9105 1.068C62.3372 1.068 62.7105 1.228 63.0305 1.548C63.3718 1.84667 63.5425 2.23067 63.5425 2.7V21.868C63.5425 22.3373 63.3932 22.732 63.0945 23.052C62.7958 23.3507 62.4012 23.5 61.9105 23.5C61.3985 23.5 60.9825 23.3507 60.6625 23.052C60.3638 22.732 60.2145 22.3373 60.2145 21.868V5.644L61.2385 5.868L54.1985 16.588C54.0492 16.78 53.8572 16.9507 53.6225 17.1C53.3878 17.228 53.1425 17.2813 52.8865 17.26C52.6518 17.2813 52.4065 17.228 52.1505 17.1C51.9158 16.9507 51.7238 16.78 51.5745 16.588L44.7905 6.028L45.5585 4.748V21.868C45.5585 22.3373 45.4092 22.732 45.1105 23.052C44.8332 23.3507 44.4598 23.5 43.9905 23.5C43.5425 23.5 43.1692 23.3507 42.8705 23.052C42.5932 22.732 42.4545 22.3373 42.4545 21.868V2.7C42.4545 2.252 42.6145 1.868 42.9345 1.548C43.2758 1.228 43.6705 1.068 44.1185 1.068ZM68.799 1.1H79.871C80.319 1.1 80.6923 1.24933 80.991 1.548C81.311 1.84667 81.471 2.22 81.471 2.668C81.471 3.116 81.311 3.47867 80.991 3.756C80.6923 4.03333 80.319 4.172 79.871 4.172H70.207L70.527 3.628V10.796L70.239 10.476H78.431C78.879 10.476 79.2523 10.6253 79.551 10.924C79.871 11.2227 80.031 11.6067 80.031 12.076C80.031 12.524 79.871 12.8867 79.551 13.164C79.2523 13.4413 78.879 13.58 78.431 13.58H70.303L70.527 13.292V20.684L70.303 20.428H79.871C80.319 20.428 80.6923 20.588 80.991 20.908C81.311 21.2067 81.471 21.5587 81.471 21.964C81.471 22.412 81.311 22.7853 80.991 23.084C80.6923 23.3613 80.319 23.5 79.871 23.5H68.799C68.351 23.5 67.967 23.3507 67.647 23.052C67.327 22.732 67.167 22.3373 67.167 21.868V2.732C67.167 2.26267 67.327 1.87867 67.647 1.58C67.967 1.26 68.351 1.1 68.799 1.1ZM100.979 1.1C102.941 1.1 104.424 1.58 105.427 2.54C106.451 3.5 106.963 4.89733 106.963 6.732C106.963 7.692 106.728 8.56667 106.259 9.356C105.811 10.124 105.139 10.732 104.243 11.18C103.368 11.628 102.269 11.8627 100.947 11.884L101.011 10.7C101.715 10.7 102.472 10.796 103.283 10.988C104.115 11.18 104.893 11.5107 105.619 11.98C106.344 12.4493 106.941 13.0893 107.411 13.9C107.88 14.6893 108.115 15.6813 108.115 16.876C108.115 18.1773 107.901 19.2653 107.475 20.14C107.048 20.9933 106.483 21.6653 105.779 22.156C105.075 22.6467 104.296 22.9987 103.443 23.212C102.611 23.404 101.789 23.5 100.979 23.5H92.7865C92.3385 23.5 91.9545 23.3507 91.6345 23.052C91.3145 22.732 91.1545 22.3373 91.1545 21.868V2.732C91.1545 2.26267 91.3145 1.87867 91.6345 1.58C91.9545 1.26 92.3385 1.1 92.7865 1.1H100.979ZM100.531 4.236H94.2265L94.6105 3.724V10.604L94.2585 10.252H100.595C101.363 10.2307 102.035 9.97467 102.611 9.484C103.208 8.972 103.507 8.22533 103.507 7.244C103.507 6.24133 103.24 5.49467 102.707 5.004C102.173 4.492 101.448 4.236 100.531 4.236ZM100.755 13.388H94.3865L94.6105 13.164V20.716L94.3545 20.428H100.947C102.056 20.428 102.952 20.14 103.635 19.564C104.317 18.9667 104.659 18.0707 104.659 16.876C104.659 15.8733 104.456 15.1267 104.051 14.636C103.645 14.1453 103.144 13.8147 102.547 13.644C101.949 13.4733 101.352 13.388 100.755 13.388ZM123.726 1.004C124.131 1.004 124.494 1.164 124.814 1.484C125.155 1.78267 125.326 2.16667 125.326 2.636C125.326 2.80667 125.294 2.97733 125.23 3.148C125.187 3.29733 125.113 3.45733 125.006 3.628L117.678 13.996L118.19 12.108V21.868C118.19 22.3373 118.03 22.732 117.71 23.052C117.39 23.3507 117.027 23.5 116.622 23.5C116.174 23.5 115.79 23.3507 115.47 23.052C115.171 22.732 115.022 22.3373 115.022 21.868V12.364L115.246 13.292L108.174 3.852C108.003 3.61733 107.886 3.404 107.822 3.212C107.758 2.99867 107.726 2.796 107.726 2.604C107.726 2.13467 107.907 1.75067 108.27 1.452C108.654 1.15333 109.038 1.004 109.422 1.004C109.934 1.004 110.371 1.24933 110.734 1.74L117.134 10.508L116.366 10.412L122.382 1.772C122.745 1.26 123.193 1.004 123.726 1.004ZM135.8 1.068C136.056 1.068 136.322 1.132 136.6 1.26C136.877 1.388 137.09 1.56933 137.24 1.804L145.368 14.188L143.992 14.124L152.28 1.804C152.621 1.31333 153.058 1.068 153.592 1.068C154.018 1.068 154.392 1.228 154.712 1.548C155.053 1.84667 155.224 2.23067 155.224 2.7V21.868C155.224 22.3373 155.074 22.732 154.776 23.052C154.477 23.3507 154.082 23.5 153.592 23.5C153.08 23.5 152.664 23.3507 152.344 23.052C152.045 22.732 151.896 22.3373 151.896 21.868V5.644L152.92 5.868L145.88 16.588C145.73 16.78 145.538 16.9507 145.304 17.1C145.069 17.228 144.824 17.2813 144.568 17.26C144.333 17.2813 144.088 17.228 143.832 17.1C143.597 16.9507 143.405 16.78 143.256 16.588L136.472 6.028L137.24 4.748V21.868C137.24 22.3373 137.09 22.732 136.792 23.052C136.514 23.3507 136.141 23.5 135.672 23.5C135.224 23.5 134.85 23.3507 134.552 23.052C134.274 22.732 134.136 22.3373 134.136 21.868V2.7C134.136 2.252 134.296 1.868 134.616 1.548C134.957 1.228 135.352 1.068 135.8 1.068ZM162.208 21.868C162.187 22.3373 162.006 22.732 161.664 23.052C161.344 23.3507 160.96 23.5 160.512 23.5C160.022 23.5 159.616 23.3507 159.296 23.052C158.998 22.732 158.848 22.3373 158.848 21.868V2.732C158.848 2.26267 159.008 1.87867 159.328 1.58C159.648 1.26 160.064 1.1 160.576 1.1C161.003 1.1 161.376 1.26 161.696 1.58C162.038 1.87867 162.208 2.26267 162.208 2.732V21.868Z" fill="#DADED6"/>
<path d="M45.588 39.64C44.8973 39.64 44.2907 39.5373 43.768 39.332C43.2453 39.1267 42.7413 38.8 42.256 38.352C42.1907 38.2867 42.1347 38.2167 42.088 38.142C42.0507 38.058 42.032 37.9693 42.032 37.876C42.032 37.7267 42.0833 37.596 42.186 37.484C42.298 37.3627 42.4333 37.302 42.592 37.302C42.7227 37.302 42.8393 37.3533 42.942 37.456C43.306 37.8107 43.698 38.0813 44.118 38.268C44.5473 38.4547 45.028 38.548 45.56 38.548C45.9707 38.548 46.3393 38.4827 46.666 38.352C47.002 38.2213 47.268 38.0393 47.464 37.806C47.66 37.5727 47.758 37.302 47.758 36.994C47.7487 36.6207 47.6367 36.3127 47.422 36.07C47.2167 35.8273 46.9273 35.6267 46.554 35.468C46.19 35.3 45.7653 35.16 45.28 35.048C44.8507 34.9453 44.454 34.8193 44.09 34.67C43.7353 34.5207 43.4273 34.3387 43.166 34.124C42.9047 33.9 42.6993 33.634 42.55 33.326C42.41 33.0087 42.34 32.64 42.34 32.22C42.34 31.688 42.48 31.2213 42.76 30.82C43.04 30.4187 43.4273 30.1107 43.922 29.896C44.4167 29.672 44.986 29.56 45.63 29.56C46.1993 29.56 46.736 29.6533 47.24 29.84C47.7533 30.0267 48.164 30.2833 48.472 30.61C48.6587 30.7873 48.752 30.96 48.752 31.128C48.752 31.268 48.6913 31.3987 48.57 31.52C48.458 31.632 48.3273 31.688 48.178 31.688C48.0753 31.688 47.982 31.6507 47.898 31.576C47.7393 31.3987 47.5387 31.24 47.296 31.1C47.0533 30.96 46.7873 30.848 46.498 30.764C46.2087 30.68 45.9193 30.638 45.63 30.638C45.2007 30.638 44.8227 30.7033 44.496 30.834C44.1693 30.9553 43.9127 31.1327 43.726 31.366C43.5487 31.59 43.46 31.8607 43.46 32.178C43.46 32.5327 43.5627 32.8267 43.768 33.06C43.9733 33.284 44.2487 33.4707 44.594 33.62C44.9393 33.76 45.322 33.886 45.742 33.998C46.1993 34.11 46.6193 34.2407 47.002 34.39C47.394 34.53 47.73 34.7073 48.01 34.922C48.29 35.1367 48.5047 35.412 48.654 35.748C48.8127 36.0747 48.892 36.4807 48.892 36.966C48.892 37.4793 48.7473 37.9367 48.458 38.338C48.1687 38.7393 47.772 39.0567 47.268 39.29C46.7733 39.514 46.2133 39.6307 45.588 39.64ZM57.4491 35.86C57.4491 36.588 57.2857 37.2367 56.9591 37.806C56.6417 38.3753 56.2077 38.8233 55.6571 39.15C55.1157 39.4767 54.5044 39.64 53.8231 39.64C53.1417 39.64 52.5257 39.4767 51.9751 39.15C51.4244 38.8233 50.9857 38.3753 50.6591 37.806C50.3417 37.2367 50.1831 36.588 50.1831 35.86C50.1831 35.132 50.3417 34.4833 50.6591 33.914C50.9857 33.3447 51.4244 32.8967 51.9751 32.57C52.5257 32.2433 53.1417 32.08 53.8231 32.08C54.5044 32.08 55.1157 32.2433 55.6571 32.57C56.2077 32.8967 56.6417 33.3447 56.9591 33.914C57.2857 34.4833 57.4491 35.132 57.4491 35.86ZM56.3291 35.86C56.3291 35.3187 56.2171 34.8427 55.9931 34.432C55.7784 34.0213 55.4797 33.6993 55.0971 33.466C54.7237 33.2327 54.2991 33.116 53.8231 33.116C53.3471 33.116 52.9177 33.2327 52.5351 33.466C52.1617 33.6993 51.8631 34.0213 51.6391 34.432C51.4151 34.8427 51.3031 35.3187 51.3031 35.86C51.3031 36.392 51.4151 36.8633 51.6391 37.274C51.8631 37.6847 52.1617 38.0113 52.5351 38.254C52.9177 38.4873 53.3471 38.604 53.8231 38.604C54.2991 38.604 54.7237 38.4873 55.0971 38.254C55.4797 38.0113 55.7784 37.6847 55.9931 37.274C56.2171 36.8633 56.3291 36.392 56.3291 35.86ZM64.5517 32.262C64.7197 32.262 64.855 32.318 64.9577 32.43C65.0603 32.5327 65.1117 32.6633 65.1117 32.822V36.644C65.1117 37.5867 64.8457 38.3193 64.3137 38.842C63.791 39.3553 63.0583 39.612 62.1157 39.612C61.1823 39.612 60.4497 39.3553 59.9177 38.842C59.395 38.3193 59.1337 37.5867 59.1337 36.644V32.822C59.1337 32.6633 59.185 32.5327 59.2877 32.43C59.3997 32.318 59.535 32.262 59.6937 32.262C59.8617 32.262 59.997 32.318 60.0997 32.43C60.2023 32.5327 60.2537 32.6633 60.2537 32.822V36.644C60.2537 37.2787 60.417 37.7593 60.7437 38.086C61.0703 38.4127 61.5277 38.576 62.1157 38.576C62.7223 38.576 63.1843 38.4127 63.5017 38.086C63.8283 37.7593 63.9917 37.2787 63.9917 36.644V32.822C63.9917 32.6633 64.043 32.5327 64.1457 32.43C64.2577 32.318 64.393 32.262 64.5517 32.262ZM66.9064 32.304H70.1964C70.3457 32.304 70.4671 32.3553 70.5604 32.458C70.6631 32.5607 70.7144 32.682 70.7144 32.822C70.7144 32.9713 70.6631 33.0973 70.5604 33.2C70.4671 33.2933 70.3457 33.34 70.1964 33.34H66.9064C66.7664 33.34 66.6451 33.2887 66.5424 33.186C66.4397 33.0833 66.3884 32.9573 66.3884 32.808C66.3884 32.668 66.4397 32.5513 66.5424 32.458C66.6451 32.3553 66.7664 32.304 66.9064 32.304ZM68.3764 30.4C68.5351 30.4 68.6657 30.456 68.7684 30.568C68.8711 30.6707 68.9224 30.8013 68.9224 30.96V37.722C68.9224 37.946 68.9551 38.114 69.0204 38.226C69.0857 38.338 69.1697 38.4173 69.2724 38.464C69.3844 38.5013 69.4917 38.52 69.5944 38.52C69.6877 38.52 69.7671 38.506 69.8324 38.478C69.9071 38.4407 69.9911 38.422 70.0844 38.422C70.1777 38.422 70.2617 38.4687 70.3364 38.562C70.4204 38.646 70.4624 38.758 70.4624 38.898C70.4624 39.066 70.3644 39.2107 70.1684 39.332C69.9724 39.444 69.7531 39.5 69.5104 39.5C69.3797 39.5 69.2164 39.4907 69.0204 39.472C68.8337 39.4533 68.6471 39.3927 68.4604 39.29C68.2737 39.1873 68.1151 39.0193 67.9844 38.786C67.8631 38.5433 67.8024 38.2073 67.8024 37.778V30.96C67.8024 30.8013 67.8584 30.6707 67.9704 30.568C68.0824 30.456 68.2177 30.4 68.3764 30.4ZM75.7723 32.15C76.3883 32.15 76.8737 32.2853 77.2283 32.556C77.5923 32.8173 77.849 33.172 77.9983 33.62C78.157 34.0587 78.2363 34.5487 78.2363 35.09V38.926C78.2363 39.0847 78.1803 39.22 78.0683 39.332C77.9657 39.444 77.835 39.5 77.6763 39.5C77.5177 39.5 77.3823 39.444 77.2703 39.332C77.1677 39.22 77.1163 39.0847 77.1163 38.926V35.09C77.1163 34.7353 77.065 34.418 76.9623 34.138C76.8597 33.8487 76.687 33.62 76.4443 33.452C76.211 33.2747 75.889 33.186 75.4783 33.186C75.0957 33.186 74.7457 33.2747 74.4283 33.452C74.111 33.62 73.859 33.8487 73.6723 34.138C73.4857 34.418 73.3923 34.7353 73.3923 35.09V38.926C73.3923 39.0847 73.3363 39.22 73.2243 39.332C73.1217 39.444 72.991 39.5 72.8323 39.5C72.6737 39.5 72.5383 39.444 72.4263 39.332C72.3237 39.22 72.2723 39.0847 72.2723 38.926V29.7C72.2723 29.5413 72.3237 29.4107 72.4263 29.308C72.5383 29.196 72.6737 29.14 72.8323 29.14C73.0003 29.14 73.1357 29.196 73.2383 29.308C73.341 29.4107 73.3923 29.5413 73.3923 29.7V33.886L73.1123 34.194C73.159 33.9513 73.2617 33.7087 73.4203 33.466C73.579 33.214 73.7797 32.99 74.0223 32.794C74.265 32.598 74.5357 32.444 74.8343 32.332C75.133 32.2107 75.4457 32.15 75.7723 32.15ZM91.2789 39.528C91.1109 39.528 90.9709 39.458 90.8589 39.318L87.1349 34.572L87.9889 33.704L91.7829 38.562C91.8669 38.6833 91.9089 38.8093 91.9089 38.94C91.9089 39.1267 91.8389 39.2713 91.6989 39.374C91.5682 39.4767 91.4282 39.528 91.2789 39.528ZM91.2369 29.686C91.3862 29.686 91.5075 29.7467 91.6009 29.868C91.7035 29.9893 91.7549 30.1153 91.7549 30.246C91.7549 30.3767 91.6989 30.498 91.5869 30.61L85.3989 36.462L85.3009 35.16L90.7889 29.896C90.9289 29.756 91.0782 29.686 91.2369 29.686ZM84.9369 39.5C84.7595 39.5 84.6195 39.444 84.5169 39.332C84.4142 39.22 84.3629 39.0847 84.3629 38.926V30.274C84.3629 30.106 84.4189 29.9707 84.5309 29.868C84.6429 29.756 84.7829 29.7 84.9509 29.7C85.1282 29.7 85.2682 29.756 85.3709 29.868C85.4735 29.9707 85.5249 30.106 85.5249 30.274V38.926C85.5249 39.0847 85.4689 39.22 85.3569 39.332C85.2542 39.444 85.1142 39.5 84.9369 39.5ZM100.105 35.86C100.105 36.588 99.942 37.2367 99.6153 37.806C99.298 38.3753 98.864 38.8233 98.3133 39.15C97.772 39.4767 97.1606 39.64 96.4793 39.64C95.798 39.64 95.182 39.4767 94.6313 39.15C94.0806 38.8233 93.642 38.3753 93.3153 37.806C92.998 37.2367 92.8393 36.588 92.8393 35.86C92.8393 35.132 92.998 34.4833 93.3153 33.914C93.642 33.3447 94.0806 32.8967 94.6313 32.57C95.182 32.2433 95.798 32.08 96.4793 32.08C97.1606 32.08 97.772 32.2433 98.3133 32.57C98.864 32.8967 99.298 33.3447 99.6153 33.914C99.942 34.4833 100.105 35.132 100.105 35.86ZM98.9853 35.86C98.9853 35.3187 98.8733 34.8427 98.6493 34.432C98.4346 34.0213 98.136 33.6993 97.7533 33.466C97.38 33.2327 96.9553 33.116 96.4793 33.116C96.0033 33.116 95.574 33.2327 95.1913 33.466C94.818 33.6993 94.5193 34.0213 94.2953 34.432C94.0713 34.8427 93.9593 35.3187 93.9593 35.86C93.9593 36.392 94.0713 36.8633 94.2953 37.274C94.5193 37.6847 94.818 38.0113 95.1913 38.254C95.574 38.4873 96.0033 38.604 96.4793 38.604C96.9553 38.604 97.38 38.4873 97.7533 38.254C98.136 38.0113 98.4346 37.6847 98.6493 37.274C98.8733 36.8633 98.9853 36.392 98.9853 35.86ZM102.35 39.5C102.191 39.5 102.056 39.444 101.944 39.332C101.841 39.22 101.79 39.0847 101.79 38.926V32.822C101.79 32.6633 101.841 32.5327 101.944 32.43C102.056 32.318 102.191 32.262 102.35 32.262C102.518 32.262 102.653 32.318 102.756 32.43C102.859 32.5327 102.91 32.6633 102.91 32.822V34.67L102.742 34.376C102.798 34.0867 102.896 33.8067 103.036 33.536C103.185 33.256 103.372 33.0087 103.596 32.794C103.82 32.57 104.077 32.3973 104.366 32.276C104.655 32.1453 104.973 32.08 105.318 32.08C105.523 32.08 105.71 32.1313 105.878 32.234C106.055 32.3273 106.144 32.4627 106.144 32.64C106.144 32.836 106.093 32.9807 105.99 33.074C105.887 33.1673 105.771 33.214 105.64 33.214C105.519 33.214 105.402 33.1907 105.29 33.144C105.178 33.088 105.038 33.06 104.87 33.06C104.637 33.06 104.403 33.1253 104.17 33.256C103.946 33.3773 103.736 33.5547 103.54 33.788C103.353 34.0213 103.199 34.2873 103.078 34.586C102.966 34.8753 102.91 35.188 102.91 35.524V38.926C102.91 39.0847 102.854 39.22 102.742 39.332C102.639 39.444 102.509 39.5 102.35 39.5ZM110.441 39.64C109.694 39.64 109.041 39.4813 108.481 39.164C107.921 38.8467 107.482 38.4127 107.165 37.862C106.857 37.302 106.703 36.658 106.703 35.93C106.703 35.118 106.861 34.4273 107.179 33.858C107.505 33.2793 107.925 32.8407 108.439 32.542C108.961 32.234 109.512 32.08 110.091 32.08C110.52 32.08 110.935 32.1593 111.337 32.318C111.738 32.4767 112.093 32.71 112.401 33.018C112.709 33.3167 112.956 33.6807 113.143 34.11C113.329 34.53 113.427 35.0013 113.437 35.524C113.437 35.6733 113.381 35.7993 113.269 35.902C113.157 36.0047 113.026 36.056 112.877 36.056H107.347L107.095 35.09H112.485L112.261 35.286V34.978C112.223 34.5953 112.093 34.2687 111.869 33.998C111.654 33.718 111.388 33.5033 111.071 33.354C110.763 33.2047 110.436 33.13 110.091 33.13C109.811 33.13 109.531 33.1813 109.251 33.284C108.98 33.3773 108.733 33.536 108.509 33.76C108.294 33.9747 108.117 34.2547 107.977 34.6C107.846 34.9453 107.781 35.3607 107.781 35.846C107.781 36.3873 107.888 36.8633 108.103 37.274C108.327 37.6847 108.635 38.0113 109.027 38.254C109.419 38.4873 109.876 38.604 110.399 38.604C110.725 38.604 111.01 38.562 111.253 38.478C111.495 38.394 111.705 38.2913 111.883 38.17C112.06 38.0393 112.209 37.9087 112.331 37.778C112.452 37.694 112.569 37.652 112.681 37.652C112.821 37.652 112.933 37.6987 113.017 37.792C113.11 37.8853 113.157 37.9973 113.157 38.128C113.157 38.2867 113.082 38.4267 112.933 38.548C112.671 38.8373 112.317 39.094 111.869 39.318C111.421 39.5327 110.945 39.64 110.441 39.64ZM121.139 32.192C121.297 32.192 121.428 32.248 121.531 32.36C121.643 32.4627 121.699 32.5933 121.699 32.752V38.926C121.699 39.0847 121.643 39.22 121.531 39.332C121.428 39.444 121.297 39.5 121.139 39.5C120.971 39.5 120.835 39.444 120.733 39.332C120.63 39.22 120.579 39.0847 120.579 38.926V37.596L120.845 37.568C120.845 37.7733 120.775 37.9973 120.635 38.24C120.495 38.4827 120.303 38.7113 120.061 38.926C119.818 39.1313 119.529 39.304 119.193 39.444C118.866 39.5747 118.511 39.64 118.129 39.64C117.494 39.64 116.925 39.4767 116.421 39.15C115.917 38.814 115.515 38.3613 115.217 37.792C114.927 37.2227 114.783 36.574 114.783 35.846C114.783 35.1087 114.927 34.46 115.217 33.9C115.515 33.3307 115.917 32.8873 116.421 32.57C116.925 32.2433 117.485 32.08 118.101 32.08C118.502 32.08 118.875 32.1453 119.221 32.276C119.566 32.4067 119.865 32.584 120.117 32.808C120.378 33.032 120.579 33.2793 120.719 33.55C120.868 33.8207 120.943 34.0913 120.943 34.362L120.579 34.278V32.752C120.579 32.5933 120.63 32.4627 120.733 32.36C120.835 32.248 120.971 32.192 121.139 32.192ZM118.255 38.604C118.721 38.604 119.132 38.4827 119.487 38.24C119.851 37.9973 120.131 37.6707 120.327 37.26C120.532 36.84 120.635 36.3687 120.635 35.846C120.635 35.3327 120.532 34.8707 120.327 34.46C120.131 34.04 119.851 33.7133 119.487 33.48C119.132 33.2373 118.721 33.116 118.255 33.116C117.797 33.116 117.387 33.2327 117.023 33.466C116.668 33.6993 116.388 34.0213 116.183 34.432C115.977 34.8427 115.875 35.314 115.875 35.846C115.875 36.3687 115.973 36.84 116.169 37.26C116.374 37.6707 116.654 37.9973 117.009 38.24C117.373 38.4827 117.788 38.604 118.255 38.604Z" fill="#DADED6"/>
</svg>
