<svg width="28" height="28" viewBox="0 0 28 28" fill="none" xmlns="http://www.w3.org/2000/svg">
<rect width="28" height="28" rx="3" fill="#191818"/>
<path d="M7.464 15.272C7.208 15.272 6.984 15.1867 6.792 15.016C6.62133 14.824 6.536 14.5893 6.536 14.312C6.536 14.056 6.62133 13.8533 6.792 13.704C6.984 13.5333 7.208 13.448 7.464 13.448H20.68C20.936 13.448 21.1493 13.5333 21.32 13.704C21.512 13.8747 21.608 14.0987 21.608 14.376C21.608 14.6107 21.512 14.824 21.32 15.016C21.1493 15.1867 20.936 15.272 20.68 15.272H7.464ZM14.056 22.184C13.7573 22.184 13.512 22.088 13.32 21.896C13.128 21.704 13.032 21.4587 13.032 21.16V7.624C13.032 7.304 13.128 7.048 13.32 6.856C13.5333 6.664 13.7787 6.568 14.056 6.568C14.376 6.568 14.6213 6.664 14.792 6.856C14.984 7.048 15.08 7.29333 15.08 7.592V21.16C15.08 21.4587 14.984 21.704 14.792 21.896C14.6 22.088 14.3547 22.184 14.056 22.184Z" fill="#191818"/>
</svg>
