<svg width="57" height="66" viewBox="0 0 57 66" fill="none" xmlns="http://www.w3.org/2000/svg">
<g clip-path="url(#clip0_31_16)">
<path d="M38.8862 33.0333C38.8862 33.3698 38.8281 33.7047 38.7144 34.0177C38.6007 34.3306 38.4324 34.6186 38.2163 34.8615L18.6987 56.795L18.5376 56.9591C18.1459 57.3217 17.6474 57.5333 17.1167 57.5333C16.5104 57.5333 15.9457 57.2572 15.5347 56.795L15.5269 56.7863L15.5063 56.7618L15.5073 56.7609C15.3083 56.5354 15.1525 56.2703 15.0474 55.9816C14.9674 55.7619 14.9162 55.5305 14.896 55.296L14.8862 55.0607C14.8862 54.746 14.9408 54.4327 15.0474 54.1398C15.1539 53.847 15.3111 53.5773 15.5142 53.3497H15.5151L33.5981 33.0372L15.5151 12.7159L15.5142 12.7169C15.3111 12.4894 15.1539 12.2196 15.0474 11.9269C14.9674 11.7071 14.9162 11.476 14.896 11.2413L14.8862 11.006C14.8862 10.6913 14.9408 10.3779 15.0474 10.0851C15.1526 9.79616 15.3081 9.53043 15.5073 9.30481H15.5063L15.5269 9.2804L15.5347 9.27161C15.9457 8.8095 16.5104 8.5334 17.1167 8.53333L17.3423 8.54602C17.8621 8.60519 18.3391 8.86724 18.6987 9.27161L38.2163 31.2052L38.3696 31.3956C38.5135 31.5936 38.6291 31.8143 38.7144 32.049C38.8281 32.3619 38.8862 32.6968 38.8862 33.0333Z" fill="#DADED6" stroke="#DADED6"/>
</g>
<defs>
<clipPath id="clip0_31_16">
<rect width="66" height="57" fill="white" transform="matrix(0 1 -1 0 57 0)"/>
</clipPath>
</defs>
</svg>
