<svg width="67" height="77" viewBox="0 0 67 77" fill="none" xmlns="http://www.w3.org/2000/svg">
<g clip-path="url(#clip0_64_48)">
<path d="M45.6206 38.4999C45.6206 38.8841 45.5523 39.2656 45.4194 39.6219L45.3081 39.8837C45.1852 40.1385 45.0282 40.3733 44.8403 40.579L21.5034 66.1337L21.3169 66.3192C20.8645 66.7271 20.2932 66.9607 19.6899 66.9608C19.0002 66.9608 18.3518 66.6555 17.8755 66.1337L17.8677 66.1249L17.8423 66.0956L17.8433 66.0946C17.671 65.9046 17.5258 65.6892 17.4126 65.455L17.3081 65.2108C17.1838 64.8779 17.1206 64.5217 17.1206 64.163C17.1206 63.8938 17.1557 63.6256 17.2261 63.368L17.3081 63.1141C17.4324 62.7816 17.6155 62.4769 17.8501 62.2206L39.519 38.5038L17.8501 14.7792C17.6156 14.5229 17.4323 14.2182 17.3081 13.8856C17.1838 13.5528 17.1207 13.1965 17.1206 12.8378C17.1206 12.4789 17.1837 12.1219 17.3081 11.7889C17.431 11.4599 17.6123 11.1588 17.8433 10.9042H17.8423L17.8677 10.8749L17.8755 10.8661C18.3518 10.3444 19.0003 10.0389 19.6899 10.0389L19.9458 10.0526C20.5384 10.1182 21.0866 10.4096 21.5034 10.8661L44.8403 36.4208L45.0181 36.6356C45.1852 36.8598 45.3198 37.1105 45.4194 37.3778L45.5073 37.6493C45.5825 37.925 45.6206 38.2117 45.6206 38.4999Z" fill="#191818" stroke="#DADED6"/>
</g>
<defs>
<clipPath id="clip0_64_48">
<rect width="77" height="67" fill="white" transform="matrix(0 1 -1 0 67 0)"/>
</clipPath>
</defs>
</svg>
