<svg width="25" height="28" viewBox="0 0 25 28" fill="none" xmlns="http://www.w3.org/2000/svg">
<g clip-path="url(#clip0_97_21)">
<path d="M16.6668 2.46875V3.875H22.1356C22.3428 3.875 22.5415 3.96389 22.688 4.12213C22.8345 4.28036 22.9168 4.49497 22.9168 4.71875C22.9168 4.94253 22.8345 5.15714 22.688 5.31537C22.5415 5.47361 22.3428 5.5625 22.1356 5.5625H2.86475C2.65755 5.5625 2.45883 5.47361 2.31232 5.31537C2.16581 5.15714 2.0835 4.94253 2.0835 4.71875C2.0835 4.49497 2.16581 4.28036 2.31232 4.12213C2.45883 3.96389 2.65755 3.875 2.86475 3.875H8.3335V2.46875C8.3335 1.382 9.15016 0.5 10.1564 0.5H14.8439C15.8502 0.5 16.6668 1.382 16.6668 2.46875ZM9.896 2.46875V3.875H15.1043V2.46875C15.1043 2.39416 15.0769 2.32262 15.0281 2.26988C14.9792 2.21713 14.913 2.1875 14.8439 2.1875H10.1564C10.0873 2.1875 10.0211 2.21713 9.97227 2.26988C9.92343 2.32262 9.896 2.39416 9.896 2.46875ZM5.20537 7.45025C5.19647 7.33917 5.16726 7.2311 5.11945 7.13228C5.07164 7.03346 5.00616 6.94585 4.92681 6.87453C4.84747 6.8032 4.75581 6.74957 4.65716 6.71672C4.5585 6.68388 4.45479 6.67248 4.35203 6.68319C4.24927 6.69389 4.14949 6.72649 4.05846 6.77909C3.96744 6.83169 3.88697 6.90325 3.8217 6.98964C3.75644 7.07603 3.70767 7.17554 3.67823 7.2824C3.64879 7.38927 3.63925 7.50138 3.65016 7.61225L5.121 24.035C5.16499 24.5218 5.37517 24.9734 5.71061 25.302C6.04605 25.6306 6.48272 25.8126 6.93558 25.8125H18.0647C18.5178 25.8125 18.9546 25.6304 19.29 25.3016C19.6255 24.9728 19.8356 24.5209 19.8793 24.0339L21.3512 7.61225C21.3711 7.38937 21.3082 7.16708 21.1763 6.99429C21.0445 6.8215 20.8545 6.71236 20.6481 6.69088C20.4417 6.66939 20.2359 6.73733 20.0759 6.87974C19.9159 7.02215 19.8148 7.22737 19.795 7.45025L18.3241 23.8708C18.3179 23.9404 18.2879 24.005 18.2399 24.052C18.192 24.099 18.1295 24.125 18.0647 24.125H6.93558C6.87081 24.125 6.80836 24.099 6.7604 24.052C6.71244 24.005 6.68242 23.9404 6.6762 23.8708L5.20537 7.45025Z" fill="#A3A1A1"/>
<path d="M9.58981 8.93863C9.69227 8.93209 9.79493 8.94741 9.89191 8.98374C9.98889 9.02006 10.0783 9.07667 10.155 9.15033C10.2317 9.22398 10.2942 9.31324 10.339 9.41301C10.3838 9.51277 10.4099 9.62109 10.4158 9.73176L10.9367 19.2943C10.9488 19.5179 10.8782 19.7376 10.7404 19.905C10.6026 20.0724 10.4088 20.1738 10.2018 20.1869C9.99472 20.2001 9.79131 20.1238 9.6363 19.975C9.48129 19.8261 9.38738 19.6169 9.37522 19.3933L8.85439 9.83075C8.84833 9.72009 8.86252 9.60922 8.89616 9.50448C8.92979 9.39975 8.9822 9.30319 9.0504 9.22034C9.11861 9.13749 9.20125 9.06997 9.29363 9.02163C9.386 8.97329 9.48629 8.94509 9.58876 8.93863H9.58981ZM16.145 9.83075C16.1572 9.60713 16.0866 9.38745 15.9488 9.22003C15.8109 9.05262 15.6172 8.9512 15.4101 8.93807C15.2031 8.92494 14.9996 9.00118 14.8446 9.15003C14.6896 9.29888 14.5957 9.50813 14.5836 9.73176L14.0627 19.2943C14.0506 19.5177 14.1211 19.7373 14.2588 19.9046C14.3966 20.0719 14.5902 20.1733 14.7971 20.1864C15.004 20.1995 15.2073 20.1233 15.3622 19.9746C15.5171 19.8258 15.611 19.6167 15.6231 19.3933L16.145 9.83075Z" fill="#A3A1A1"/>
</g>
<defs>
<clipPath id="clip0_97_21">
<rect width="25" height="27" fill="white" transform="translate(0 0.5)"/>
</clipPath>
</defs>
</svg>
