<svg width="35" height="35" viewBox="0 0 35 35" fill="none" xmlns="http://www.w3.org/2000/svg">
<path d="M27.7813 7.16052C26.4443 5.81 24.8518 4.73921 23.0966 4.0106C21.3414 3.28199 19.4588 2.91015 17.5584 2.91677C9.59587 2.91677 3.10629 9.40636 3.10629 17.3689C3.10629 19.9209 3.77712 22.4001 5.03129 24.5876L2.98962 32.0834L10.6459 30.0709C12.7605 31.223 15.1375 31.8355 17.5584 31.8355C25.5209 31.8355 32.0105 25.3459 32.0105 17.3834C32.0105 13.5189 30.5084 9.88761 27.7813 7.16052ZM17.5584 29.3855C15.4 29.3855 13.2855 28.8022 11.4334 27.7084L10.9959 27.4459L6.44587 28.6418L7.65629 24.2084L7.36462 23.7564C6.1655 21.8415 5.52879 19.6282 5.52712 17.3689C5.52712 10.748 10.923 5.35219 17.5438 5.35219C20.7521 5.35219 23.7709 6.60636 26.0313 8.88136C27.1505 9.99547 28.0375 11.3207 28.6408 12.7801C29.2441 14.2395 29.5518 15.8042 29.5459 17.3834C29.575 24.0043 24.1792 29.3855 17.5584 29.3855ZM24.15 20.4022C23.7855 20.2272 22.0063 19.3522 21.6855 19.2209C21.35 19.1043 21.1167 19.0459 20.8688 19.3959C20.6209 19.7605 19.9355 20.5772 19.7313 20.8105C19.5271 21.0584 19.3084 21.0876 18.9438 20.898C18.5792 20.723 17.4125 20.3293 16.0417 19.1043C14.9625 18.1418 14.248 16.9605 14.0292 16.5959C13.825 16.2314 14 16.0418 14.1896 15.8522C14.35 15.6918 14.5542 15.4293 14.7292 15.2251C14.9042 15.0209 14.9771 14.8605 15.0938 14.6272C15.2105 14.3793 15.1521 14.1751 15.0646 14.0001C14.9771 13.8251 14.248 12.0459 13.9563 11.3168C13.6646 10.6168 13.3584 10.7043 13.1396 10.6897H12.4396C12.1917 10.6897 11.8125 10.7772 11.4771 11.1418C11.1563 11.5064 10.223 12.3814 10.223 14.1605C10.223 15.9397 11.5209 17.6605 11.6959 17.8939C11.8709 18.1418 14.248 21.7876 17.8646 23.348C18.725 23.7272 19.3959 23.9459 19.9209 24.1064C20.7813 24.3834 21.5688 24.3397 22.1959 24.2522C22.8959 24.1501 24.3396 23.3772 24.6313 22.5314C24.9375 21.6855 24.9375 20.9709 24.8355 20.8105C24.7334 20.6501 24.5146 20.5772 24.15 20.4022Z" fill="#191818"/>
</svg>
